<?xml version="1.0" encoding="UTF-8" standalone="no"?>
<!-- Created with Inkscape (http://www.inkscape.org/) -->

<svg
   xmlns:dc="http://purl.org/dc/elements/1.1/"
   xmlns:cc="http://creativecommons.org/ns#"
   xmlns:rdf="http://www.w3.org/1999/02/22-rdf-syntax-ns#"
   xmlns:svg="http://www.w3.org/2000/svg"
   xmlns="http://www.w3.org/2000/svg"
   xmlns:sodipodi="http://sodipodi.sourceforge.net/DTD/sodipodi-0.dtd"
   xmlns:inkscape="http://www.inkscape.org/namespaces/inkscape"
   width="210mm"
   height="297mm"
   viewBox="0 0 210 297"
   version="1.1"
   id="svg8"
   inkscape:version="0.92.3 (2405546, 2018-03-11)"
   sodipodi:docname="LOGO SIMPLE sans texte blanc v2026.svg">
  <defs
     id="defs2">
    <clipPath
       clipPathUnits="userSpaceOnUse"
       id="clipPath3731">
      <g
         transform="translate(3.0836964e-6,-1.0159422e-6)"
         inkscape:label="Clip"
         id="use3733">
        <path
           inkscape:connector-curvature="0"
           id="path3846"
           d="m -271.13551,357.36587 c -3.1029,-0.61177 -5.74358,-2.54942 -7.0531,-5.17536 -1.49632,-3.00053 -1.5864,-3.84156 -1.59779,-14.91715 l -0.0105,-10.18646 2.69546,-0.0752 2.69547,-0.0752 0.0827,10.53261 0.0827,10.53261 0.88175,1.79028 c 1.14611,2.32709 2.32222,3.15875 4.67919,3.30882 4.09011,0.26046 6.21575,-1.95865 6.76,-7.05731 0.1343,-1.2583 0.24156,-5.91923 0.23833,-10.35761 -0.003,-4.43839 -0.003,-8.21862 0,-8.40052 0.005,-0.24206 0.71652,-0.33073 2.65298,-0.33073 h 2.64583 l -0.005,9.72344 c -0.005,10.52398 -0.14702,11.9775 -1.44867,14.8206 -1.07376,2.3454 -2.28952,3.62673 -4.44357,4.68315 -2.81781,1.38198 -5.8188,1.78314 -8.85741,1.18407 z"
           style="fill:#000000;stroke-width:0.26458332" />
        <path
           inkscape:connector-curvature="0"
           id="path3848"
           d="m -229.79062,357.45727 c -4.52771,-0.62616 -8.3489,-2.88504 -10.46877,-6.18858 -1.50551,-2.34614 -2.17623,-4.95755 -2.20141,-8.57133 -0.0251,-3.61809 0.39322,-5.59883 1.75651,-8.31452 2.75323,-5.48445 9.71614,-8.69522 16.72625,-7.71287 4.68233,0.65614 4.8311,0.77075 4.14557,3.19323 -0.29888,1.05604 -0.6018,1.9785 -0.67321,2.0499 -0.0714,0.0714 -0.52284,-0.009 -1.00322,-0.17803 -1.65703,-0.58404 -4.84815,-0.84163 -6.74926,-0.54479 -2.472,0.38598 -4.29225,1.33374 -5.86356,3.053 -2.04785,2.24067 -2.52939,3.74944 -2.52939,7.92491 0,2.95338 0.0846,3.65233 0.59886,4.94461 0.83415,2.09624 2.65033,3.94502 4.93871,5.02732 1.78054,0.84215 1.96961,0.87479 4.89479,0.84535 1.98856,-0.0201 3.49756,-0.17733 4.35557,-0.454 0.84895,-0.27377 1.3711,-0.32917 1.47767,-0.15674 0.0906,0.14663 0.30994,1.05431 0.48731,2.01708 0.36389,1.97479 0.35103,1.99723 -1.42576,2.48957 -2.38992,0.66225 -6.04467,0.91082 -8.46666,0.57589 z"
           style="fill:#000000;stroke-width:0.26458332" />
        <path
           inkscape:connector-curvature="0"
           id="path3850"
           d="m -345.28125,356.83474 c -2.90802,-0.75882 -4.69354,-1.72942 -6.50466,-3.53586 -2.70841,-2.70145 -4.06735,-6.33325 -4.07477,-10.88997 -0.007,-4.45719 1.25998,-7.87924 4.00435,-10.81347 2.92733,-3.12984 6.57404,-4.63277 11.75184,-4.8433 4.47381,-0.1819 9.02978,0.7405 8.73265,1.76802 -0.0666,0.23035 -0.32103,1.1332 -0.56537,2.00632 -0.24433,0.87313 -0.46878,1.6167 -0.49878,1.65238 -0.03,0.0357 -1.05063,-0.18701 -2.26809,-0.49488 -1.80871,-0.45739 -2.72434,-0.53553 -5.0063,-0.42726 -3.17385,0.15059 -4.66914,0.61688 -6.57254,2.04956 -2.60929,1.964 -3.85592,4.84479 -3.83488,8.86187 0.031,5.91608 3.09044,9.84094 8.36451,10.73052 1.83907,0.3102 4.39764,0.17772 5.63213,-0.29162 l 0.64407,-0.24488 -0.0734,-3.77409 -0.0734,-3.7741 -2.51354,-0.0369 -2.51354,-0.0369 -0.0769,-2.14596 -0.0768,-2.14595 h 5.30236 5.30237 v 7.66553 7.66551 l -1.39457,0.40542 c -4.50974,1.31101 -10.13039,1.57792 -13.68668,0.64992 z"
           style="fill:#000000;stroke-width:0.26458332" />
        <path
           inkscape:connector-curvature="0"
           id="path3852"
           d="m -495.3,342.31606 c 0,-8.53689 0.10125,-14.86363 0.23924,-14.94892 0.13158,-0.0813 2.03294,-0.28913 4.22524,-0.46179 6.72741,-0.52985 10.78532,0.2712 13.30283,2.62603 1.65494,1.54801 2.21284,3.01145 2.19491,5.7576 -0.0108,1.6488 -0.1427,2.3636 -0.59693,3.23379 -0.84025,1.60972 -1.97512,2.8084 -3.34888,3.53717 -1.32707,0.70401 -1.45199,0.91853 -0.67793,1.16421 0.83436,0.26481 2.33756,2.2165 2.93308,3.80818 0.30179,0.80661 0.89096,2.89965 1.30925,4.65119 0.41829,1.75154 0.94094,3.69064 1.16145,4.30911 l 0.40093,1.12448 h -2.75708 c -2.40126,0 -2.79053,-0.0625 -3.0163,-0.48435 -0.14257,-0.26641 -0.68502,-2.17519 -1.20544,-4.24175 -0.52042,-2.06655 -1.13544,-4.23029 -1.36671,-4.8083 -0.82005,-2.04951 -2.71454,-2.99117 -5.72828,-2.84728 l -1.64543,0.0786 -0.071,6.15156 -0.071,6.15157 h -2.64095 -2.64096 z"
           style="fill:#000000;stroke-width:0.26458332" />
        <path
           inkscape:connector-curvature="0"
           id="path3854"
           d="m -484.42096,340.44412 c 2.44789,-0.67996 3.72596,-2.30031 3.72596,-4.72384 0,-1.92381 -0.5279,-2.99096 -1.94273,-3.92725 -0.93652,-0.61976 -1.41251,-0.73006 -3.55474,-0.82376 -1.36039,-0.0595 -2.77548,-0.0324 -3.14465,0.0603 l -0.67122,0.16846 v 4.75746 4.75746 l 2.31511,-0.002 c 1.2733,-7.9e-4 2.74582,-0.12112 3.27227,-0.26734 z"
           style="fill:#000000;stroke-width:0.26458332" />
        <path
           inkscape:connector-curvature="0"
           id="path3856"
           d="m -460.90417,342.0266 v -15.09051 l 2.71198,0.0754 2.71198,0.0754 0.0683,15.0151 0.0683,15.01511 h -2.78031 -2.78031 z"
           style="fill:#000000;stroke-width:0.26458332" />
        <path
           inkscape:connector-curvature="0"
           id="path3858"
           d="m -437.99486,342.37111 c -2.60681,-8.11527 -4.79398,-14.9079 -4.86039,-15.09473 -0.0947,-0.26632 0.52087,-0.32347 2.84953,-0.26459 l 2.97027,0.0751 1.1357,3.70417 c 2.53711,8.27499 4.10391,13.66532 4.88353,16.80104 0.45226,1.81901 0.89114,3.48588 0.9753,3.70416 0.0842,0.21828 0.6003,-1.27 1.14699,-3.30729 0.54668,-2.03729 2.13523,-7.27604 3.53011,-11.64166 1.39489,-4.36563 2.61388,-8.26493 2.70887,-8.66511 l 0.17273,-0.7276 h 2.88173 c 1.58496,0 2.88174,0.0922 2.88174,0.20483 0,0.20103 -2.06212,6.2376 -6.52798,19.10975 -1.23693,3.56526 -2.57674,7.43479 -2.97735,8.59896 l -0.72839,2.11667 -3.15137,0.0707 -3.15137,0.0707 z"
           style="fill:#000000;stroke-width:0.26458332" />
        <path
           inkscape:connector-curvature="0"
           id="path3860"
           d="m -404.28334,342.03586 v -15.08125 h 8.59896 8.59896 v 2.24896 2.24895 h -5.95312 -5.95313 v 3.96875 3.96875 h 5.68854 5.68854 v 2.11141 2.1114 l -5.62239,0.0714 -5.6224,0.0714 -0.0725,4.43177 -0.0725,4.43177 h 6.3564 6.3564 v 2.24896 2.24896 h -8.99584 -8.99584 z"
           style="fill:#000000;stroke-width:0.26458332" />
        <path
           inkscape:connector-curvature="0"
           id="path3862"
           d="m -317.70296,356.79566 c 0.14236,-0.38613 0.0702,-0.16123 5.51791,-17.2072 l 4.03761,-12.63385 h 3.46389 3.4639 l 4.72851,14.61823 c 2.60068,8.04002 4.78556,14.82658 4.85527,15.08125 0.11511,0.4205 -0.13924,0.46302 -2.7691,0.46302 h -2.89587 l -1.31857,-4.16719 -1.31858,-4.16719 h -4.86791 -4.86792 l -1.22785,4.10104 -1.22786,4.10105 -2.84939,0.0754 c -2.23346,0.0591 -2.8223,0.003 -2.72404,-0.26459 z"
           style="fill:#000000;stroke-width:0.26458332" />
        <path
           inkscape:connector-curvature="0"
           id="path3864"
           d="m -301.09583,344.21128 c 0,-0.11321 -0.53019,-1.86938 -1.1782,-3.9026 -0.648,-2.03323 -1.47696,-4.81348 -1.84213,-6.17833 -0.36517,-1.36485 -0.71755,-2.53515 -0.78307,-2.60067 -0.0655,-0.0655 -0.26159,0.57493 -0.43571,1.42321 -0.17412,0.84829 -0.95784,3.62594 -1.7416,6.17255 -0.78376,2.54662 -1.4256,4.77904 -1.42632,4.96094 -10e-4,0.24889 0.91522,0.33073 3.70286,0.33073 2.03729,0 3.70417,-0.0926 3.70417,-0.20583 z"
           style="fill:#000000;stroke-width:0.26458332" />
        <path
           inkscape:connector-curvature="0"
           id="path3866"
           d="m -205.84583,342.03586 v -15.08125 h 2.64583 2.64584 v 6.08541 6.08542 h 6.48229 6.48229 v -6.08542 -6.08541 h 2.64583 2.64584 v 15.08125 15.08125 h -2.64584 -2.64583 v -6.61459 -6.61458 h -6.48229 -6.48229 v 6.61458 6.61459 h -2.64584 -2.64583 z"
           style="fill:#000000;stroke-width:0.26458332" />
        <path
           inkscape:connector-curvature="0"
           id="path3868"
           d="m -166.95208,342.03586 v -15.08125 h 8.73125 8.73125 v 2.24896 2.24895 h -5.95313 -5.95312 v 3.96349 3.96349 l 5.60118,0.0714 5.6012,0.0714 0.0365,2.05052 0.0366,2.05052 h -5.63774 -5.63774 v 4.49312 4.49313 l 6.28385,0.0709 6.28386,0.0709 0.0768,2.18281 0.0769,2.18282 h -9.13884 -9.13881 z"
           style="fill:#000000;stroke-width:0.26458332" />
        <path
           inkscape:connector-curvature="0"
           id="path3870"
           d="m -405.97198,316.07698 c -1.59816,-0.37519 -4.04555,-1.79463 -5.09266,-2.95366 -2.18238,-2.41563 -3.33611,-6.61561 -2.80335,-10.20514 0.59887,-4.03491 2.86635,-7.24417 6.32662,-8.95433 1.76753,-0.87356 2.20171,-0.9746 4.65714,-1.0838 2.54498,-0.11319 5.14659,0.19517 5.96482,0.70698 0.28821,0.18028 0.29263,0.42015 0.0243,1.3159 -0.18051,0.60248 -0.38033,1.09543 -0.44404,1.09543 -0.0637,0 -0.78284,-0.19391 -1.59807,-0.4309 -1.93353,-0.56209 -5.29189,-0.38108 -7.00721,0.37769 -1.74682,0.7727 -3.44297,2.57833 -4.17407,4.44348 -0.80964,2.06551 -0.89174,6.153 -0.16542,8.23571 0.64738,1.85639 2.4443,3.8119 4.20689,4.57819 1.87857,0.81671 4.8252,0.99043 7.06533,0.41653 0.92757,-0.23763 1.71059,-0.4002 1.74004,-0.36127 0.31655,0.4184 0.61861,1.93907 0.42385,2.13383 -0.81371,0.81371 -6.69545,1.25552 -9.12413,0.68536 z"
           style="fill:#000000;stroke-width:0.26458332" />
        <path
           inkscape:connector-curvature="0"
           id="path3872"
           d="m -355.04991,315.93654 c -2.64225,-0.92496 -4.38888,-2.52742 -5.72647,-5.25381 -3.05282,-6.22251 -0.7455,-14.23097 4.89953,-17.00575 1.32791,-0.65273 1.74426,-0.72133 4.37789,-0.72133 2.43105,0 3.11575,0.0949 4.15707,0.57596 2.66271,1.23018 4.58803,3.49038 5.57121,6.54023 0.73954,2.29409 0.72312,6.53358 -0.0345,8.90352 -1.06115,3.31945 -3.39549,5.79134 -6.49927,6.88223 -1.79511,0.63093 -5.05954,0.66914 -6.74548,0.0789 z"
           style="fill:#000000;stroke-width:0.26458332" />
        <path
           inkscape:connector-curvature="0"
           id="path3874"
           d="m -348.15524,313.05627 c 2.66943,-1.87615 3.81452,-4.52204 3.77538,-8.72354 -0.0298,-3.19654 -0.63104,-5.00632 -2.28904,-6.8899 -1.43478,-1.63 -2.7644,-2.2266 -4.96235,-2.2266 -2.13977,0 -3.49152,0.58144 -4.84716,2.08495 -3.47927,3.85877 -3.27852,11.66011 0.38523,14.97009 1.59936,1.44493 2.43744,1.73559 4.77128,1.65476 1.7688,-0.0613 2.17507,-0.17285 3.16666,-0.86976 z"
           style="fill:#000000;stroke-width:0.26458332" />
        <path
           inkscape:connector-curvature="0"
           id="path3876"
           d="m -329.50756,315.84563 c -2.02998,-0.64842 -2.12562,-0.76471 -1.72598,-2.09862 0.25163,-0.83986 0.42948,-1.06058 0.74798,-0.92827 3.21215,1.33435 5.70475,1.541 7.58844,0.62912 2.01666,-0.97624 2.71906,-3.03656 1.72654,-5.06437 -0.63625,-1.29991 -1.35982,-1.81051 -4.55675,-3.21553 -2.73869,-1.20361 -3.97668,-2.17451 -4.7135,-3.69657 -1.58913,-3.28272 0.20513,-7.18787 3.79458,-8.25875 2.48854,-0.74244 7.82333,-0.21593 7.82333,0.77211 0,0.56797 -0.56456,2.01361 -0.78636,2.01361 -0.11299,0 -0.71163,-0.17859 -1.3303,-0.39688 -1.42547,-0.50293 -3.97765,-0.5108 -5.16208,-0.0159 -1.32583,0.55396 -2.03759,1.82546 -1.90212,3.39799 0.1524,1.76907 0.8223,2.38028 4.55066,4.15201 4.46047,2.11963 5.68753,3.60599 5.68448,6.88571 -10e-4,1.49539 -0.97176,3.62964 -2.07067,4.55432 -2.09491,1.76275 -6.36831,2.32411 -9.66825,1.27004 z"
           style="fill:#000000;stroke-width:0.26458332" />
        <path
           inkscape:connector-curvature="0"
           id="path3878"
           d="m -305.13933,316.08246 c -0.55043,-0.12961 -1.36566,-0.42434 -1.81162,-0.65495 -0.74576,-0.38565 -0.7965,-0.49731 -0.63226,-1.39141 0.0982,-0.53467 0.2672,-1.06408 0.37555,-1.17647 0.10834,-0.11239 0.78369,0.0566 1.50076,0.3756 0.82297,0.36608 2.04139,0.62366 3.30392,0.69845 1.67818,0.0994 2.18028,0.0266 3.11923,-0.45241 1.39625,-0.71232 2.15438,-1.91051 2.15568,-3.40699 0.002,-2.18554 -0.95163,-3.20152 -4.28845,-4.56933 -2.91784,-1.19606 -4.56152,-2.43168 -5.35627,-4.02653 -1.49054,-2.99112 -0.31445,-6.21625 2.89883,-7.94932 0.89168,-0.48093 1.49581,-0.57102 3.83646,-0.57213 2.59535,-0.001 5.02708,0.45094 5.02708,0.93476 0,0.39677 -0.80964,2.10645 -0.99573,2.10264 -0.10719,-0.002 -0.67114,-0.17555 -1.25322,-0.38526 -1.65282,-0.59545 -4.22748,-0.516 -5.4445,0.168 -1.81986,1.02282 -2.31959,3.29576 -1.09437,4.97754 0.2789,0.38284 1.87302,1.34916 3.73672,2.26514 4.80985,2.36397 5.87793,3.61384 5.87793,6.8784 0,3.99211 -3.09935,6.51012 -7.93481,6.44651 -1.11108,-0.0146 -2.47049,-0.13263 -3.02093,-0.26224 z"
           style="fill:#000000;stroke-width:0.26458332" />
        <path
           inkscape:connector-curvature="0"
           id="path3880"
           d="m -386.02709,304.76423 v -11.34247 l 0.99219,-0.16399 c 0.5457,-0.0902 2.42909,-0.16531 4.18531,-0.16691 3.7446,-0.003 5.48965,0.41598 6.90631,1.65982 2.84132,2.49471 2.51383,7.34921 -0.63657,9.43594 -0.67057,0.44417 -1.33572,0.80757 -1.47813,0.80757 -0.1424,0 0.21506,0.34335 0.79437,0.763 1.32575,0.96037 1.79001,1.94537 2.87306,6.09563 0.47764,1.8303 0.95376,3.54258 1.05804,3.80506 0.17168,0.4321 0.0432,0.46963 -1.3588,0.39688 l -1.54842,-0.0804 -0.45578,-1.5875 c -0.25068,-0.87313 -0.7174,-2.58523 -1.03715,-3.80468 -0.9352,-3.56663 -2.22663,-4.52969 -6.07412,-4.52969 h -1.30989 v 5.02708 5.02708 h -1.45521 -1.45521 z"
           style="fill:#000000;stroke-width:0.26458332" />
        <path
           inkscape:connector-curvature="0"
           id="path3882"
           d="m -377.30124,303.34055 c 1.60925,-0.82229 2.19779,-1.72487 2.32678,-3.56832 0.089,-1.27194 0.004,-1.67616 -0.51292,-2.43665 -0.3408,-0.50146 -1.01164,-1.14068 -1.49076,-1.4205 -0.9664,-0.56441 -3.69529,-0.88026 -5.18718,-0.60038 l -0.95135,0.17847 v 4.22134 4.22135 h 2.32519 c 1.88971,0 2.54338,-0.11149 3.49024,-0.59531 z"
           style="fill:#000000;stroke-width:0.26458332" />
        <path
           inkscape:connector-curvature="0"
           id="path3884"
           d="m -283.10417,304.59732 v -11.50938 h 6.08542 6.08542 v 1.19063 1.19062 h -4.63021 -4.63021 v 3.96875 3.96875 h 4.38084 4.38084 l -0.0814,1.12448 -0.0814,1.12448 -4.29948,0.0727 -4.29948,0.0727 v 5.15282 5.15282 h -1.45521 -1.45521 z"
           style="fill:#000000;stroke-width:0.26458332" />
        <path
           inkscape:connector-curvature="0"
           id="path3886"
           d="m -259.75749,304.66342 0.069,-11.44323 1.38906,-0.08 1.38907,-0.08 v 11.5232 11.5232 h -1.45802 -1.45801 z"
           style="fill:#000000;stroke-width:0.26458332" />
        <path
           inkscape:connector-curvature="0"
           id="path3888"
           d="m -240.30471,305.85405 -0.0692,-10.25261 -3.52057,-0.0739 -3.52054,-0.0739 0.081,-1.1167 0.081,-1.1167 8.40052,-0.0699 8.40052,-0.0699 v 1.19434 1.19434 h -3.43958 -3.43959 v 10.31875 10.31875 h -1.45211 -1.45209 z"
           style="fill:#000000;stroke-width:0.26458332" />
        <path
           inkscape:connector-curvature="0"
           id="path3890"
           d="m -323.19468,282.75925 c -0.0933,-0.15098 -16.70956,-11.27981 -36.925,-24.73073 L -396.875,233.57231 V 162.25929 90.94628 h 74.08333 74.08334 v 71.31307 71.31308 l -36.75427,24.45444 c -20.21484,13.44994 -36.83109,24.57874 -36.92499,24.73067 -0.21822,0.35309 -0.58944,0.35388 -0.80709,0.002 z"
           style="fill:#000000;stroke-width:0.26458332" />
        <path
           inkscape:connector-curvature="0"
           id="path3892"
           d="m -289.3348,251.66033 33.21814,-22.11302 V 163.95096 98.354613 h -66.67501 -66.675 v 65.596947 65.59695 l 33.13906,22.09105 c 18.22649,12.15007 33.28208,22.10066 33.45687,22.11242 0.17479,0.0118 15.26596,-9.92948 33.53594,-22.09165 z"
           style="fill:#000000;stroke-width:0.26458332" />
        <path
           inkscape:connector-curvature="0"
           transform="matrix(0.14678137,0,0,0.16439517,-220.5253,135.42368)"
           id="path3894"
           d="m -1089.6855,-167.54883 v 365.18555 365.18555 l 28.3906,14.52343 c 15.6147,7.98771 38.1226,19.57617 50.0195,25.75196 l 21.63087,11.22851 0.45898,-184.92969 c 0.27293,-110.15098 1.12335,-184.92968 2.10352,-184.92968 2.47926,0 12.60056,4.06629 67.73828,27.21484 27.75952,11.65436 59.57358,24.96626 70.69727,29.58008 l 20.2246,8.38867 0.50586,192.10938 0.50391,192.10937 53.17578,32.00977 53.17578,32.01171 0.46289,-241.82421 c 0.38786,-202.34428 0.0643,-242.0869 -1.98632,-243.4336 -1.34786,-0.88518 -26.08768,-13.19832 -54.97657,-27.36133 -28.88881,-14.16306 -52.5342,-26.13734 -52.54101,-26.60937 -0.008,-0.47228 24.72479,-8.07058 54.96289,-16.88477 l 54.97851,-16.02539 V 9.1015625 -167.54883 h -184.76367 z m 261.373,112.626955 v 81.261719 81.263676 l -4.05664,0.7832 c -8.56158,1.65236 -61.63603,10.73475 -99.5918,17.04297 v 0.002 c -21.81108,3.62492 -41.48786,6.98369 -43.72656,7.46484 l -4.07031,0.87696 0.46484,-93.927737 0.46485,-93.927734 75.25781,-0.419922 z"
           style="fill:#000000;stroke-width:1.70326602" />
        <path
           inkscape:connector-curvature="0"
           id="path3896"
           d="m -318.22806,184.01347 0.0666,-76.00157 25.86302,-0.0674 25.86302,-0.0675 v 28.30486 28.30485 l -1.25677,-0.75028 c -0.69122,-0.41266 -3.75708,-2.27407 -6.81302,-4.13646 -3.05593,-1.86239 -6.21109,-3.7831 -7.01146,-4.26824 l -1.4552,-0.88206 -0.1323,-13.29701 -0.13229,-13.29701 -10.12031,-0.0572 -10.12031,-0.0572 v 51.18794 c 0,28.15337 0.0893,51.18421 0.19844,51.17965 0.10914,-0.005 4.54421,-2.30154 9.85572,-5.10439 l 9.6573,-5.09611 0.0661,-14.40862 0.0661,-14.40863 -3.17496,-1.95656 -3.17495,-1.95656 v -9.48667 c 0,-5.21767 0.0578,-9.48667 0.12844,-9.48667 0.0706,0 2.12447,1.20665 4.56406,2.68145 2.43959,1.47479 7.50148,4.52828 11.24864,6.78552 l 6.81302,4.10407 -0.005,23.31084 -0.005,23.31083 -7.07253,4.39448 c -6.69136,4.15758 -13.07022,8.12821 -34.5291,21.49317 -5.06013,3.15153 -9.25729,5.73006 -9.32702,5.73006 -0.0697,0 -0.0968,-34.20071 -0.0602,-76.00156 z"
           style="fill:#000000;stroke-width:0.26458332" />
      </g>
    </clipPath>
    <clipPath
       id="clipPath3957"
       clipPathUnits="userSpaceOnUse">
      <path
         inkscape:connector-curvature="0"
         id="path3955"
         d="M 0,595.28 H 841.89 V 0 H 0 Z" />
    </clipPath>
  </defs>
  <sodipodi:namedview
     id="base"
     pagecolor="#ffffff"
     bordercolor="#666666"
     borderopacity="1.0"
     inkscape:pageopacity="0.0"
     inkscape:pageshadow="2"
     inkscape:zoom="0.35"
     inkscape:cx="753.20923"
     inkscape:cy="366.11592"
     inkscape:document-units="mm"
     inkscape:current-layer="layer1"
     showgrid="false"
     showguides="true"
     inkscape:guide-bbox="true"
     inkscape:window-width="1918"
     inkscape:window-height="1000"
     inkscape:window-x="1913"
     inkscape:window-y="0"
     inkscape:window-maximized="0">
    <sodipodi:guide
       position="-315.23214,385.53573"
       orientation="0,1"
       id="guide3932"
       inkscape:locked="false" />
  </sodipodi:namedview>
  <metadata
     id="metadata5">
    <rdf:RDF>
      <cc:Work
         rdf:about="">
        <dc:format>image/svg+xml</dc:format>
        <dc:type
           rdf:resource="http://purl.org/dc/dcmitype/StillImage" />
        <dc:title></dc:title>
      </cc:Work>
    </rdf:RDF>
  </metadata>
  <g
     inkscape:label="Calque 1"
     inkscape:groupmode="layer"
     id="layer1">
    <g
       id="g3939"
       inkscape:export-filename="C:\Users\tsilv\Downloads\logo2.png"
       inkscape:export-xdpi="96"
       inkscape:export-ydpi="96"
       transform="matrix(0.64786522,0,0,0.64786522,253.84676,113.92962)"
       style="fill:#ffffff">
      <path
         style="display:inline;fill:#ffffff;stroke-width:0.45065582"
         d="M -333.66977,-95.735389 V 0.88662348 97.508636 l 7.51168,3.842654 c 4.13139,2.11342 10.0866,5.17953 13.23433,6.81354 l 5.72316,2.97088 0.12144,-48.929315 c 0.0722,-29.144114 0.29722,-48.929313 0.55656,-48.929313 0.65597,0 3.3339,1.075873 17.92242,7.200594 7.34471,3.083549 15.76218,6.605656 18.70532,7.826396 l 5.35109,2.219502 0.13384,50.828942 0.13333,50.828934 14.06942,8.46926 14.06943,8.46976 0.12247,-63.982656 c 0.10262,-53.536925 0.017,-64.05216 -0.52554,-64.408475 -0.35663,-0.234203 -6.90237,-3.492055 -14.54589,-7.239352 -7.6435,-3.7473093 -13.89967,-6.9155043 -13.90147,-7.0403956 -0.002,-0.1249574 6.54176,-2.135341 14.54226,-4.4674288 l 14.5464,-4.2400513 V -48.996638 -95.735389 h -48.88539 z m 69.15494,29.799216 v 21.500497 21.501015 l -1.07332,0.207221 c -2.26525,0.437187 -16.30786,2.840236 -26.35033,4.509286 v 5.29e-4 c -5.77085,0.959094 -10.977,1.847769 -11.56932,1.975073 l -1.07693,0.232029 0.12298,-24.851715 0.123,-24.851713 19.91196,-0.111105 z"
         id="path3795"
         inkscape:connector-curvature="0" />
      <path
         style="display:inline;fill:#ffffff;stroke-width:0.45065579"
         d="m -221.47297,26.797349 0.12005,-122.319587 46.61984,-0.108476 46.61984,-0.108637 v 45.554833 45.5548161 l -2.26541,-1.2075269 c -1.24597,-0.6641494 -6.77239,-3.6599678 -12.28093,-6.6573632 -5.50852,-2.997396 -11.19591,-6.088654 -12.63863,-6.869455 l -2.62309,-1.419618 -0.23848,-21.400674 -0.23847,-21.400673 -18.24254,-0.09206 -18.24254,-0.09206 V 18.61453 c 0,45.311019 0.16097,82.37766 0.3577,82.37032 0.19673,-0.008 8.19125,-3.704179 17.7656,-8.215184 l 17.40794,-8.201858 0.11915,-23.189737 0.11915,-23.189754 -5.72308,-3.148956 -5.72307,-3.148956 V 16.622227 c 0,-8.3975003 0.10419,-15.2681783 0.23153,-15.2681783 0.12726,0 3.8295,1.9420247 8.22702,4.3156195 4.39753,2.3735786 13.52193,7.2879718 20.27644,10.9208538 l 12.28093,6.605233 -0.009,37.517282 -0.009,37.517266 -12.74871,7.072627 c -12.06163,6.69136 -23.55996,13.08183 -62.24104,34.59186 -9.12123,5.07219 -16.68689,9.22216 -16.81258,9.22216 -0.12564,0 -0.17449,-55.043818 -0.10852,-122.319569 z"
         id="path3724"
         inkscape:connector-curvature="0" />
      <path
         inkscape:connector-curvature="0"
         id="path3799"
         transform="scale(0.26458333)"
         d="M -1372.873,-464.83789 V -31.046875 402.74219 l 250.4082,148.76562 c 137.72481,81.82065 250.92877,149.51716 251.56441,150.43555 1.48282,2.14129 4.01133,2.13611 5.49805,-0.0117 0.63972,-0.92417 113.84563,-68.61892 251.5664,-150.43359 L -363.43555,402.74414 V -31.046875 -464.83789 H -868.1543 Z m 50.4707,45.06445 h 454.248 454.2461 V -20.757812 378.25977 l -226.3086,134.51171 c -124.47069,73.98135 -227.28574,134.45267 -228.47656,134.38086 -1.19085,-0.0715 -103.76113,-60.60013 -227.93554,-134.50781 L -1322.4023,378.26758 V -20.753906 Z"
         style="fill:#ffffff;stroke-width:1.70326602" />
      <g
         id="g3927"
         style="fill:#ffffff" />
    </g>
  </g>
</svg>
